<svg xmlns="http://www.w3.org/2000/svg" viewBox="0 0 128 128" width="128" height="128">
  <defs>
    <linearGradient id="bg" x1="0" y1="0" x2="1" y2="1">
      <stop offset="0%" stop-color="#6366f1"/>
      <stop offset="100%" stop-color="#8b5cf6"/>
    </linearGradient>
    <linearGradient id="tab1" x1="0" y1="0" x2="0" y2="1">
      <stop offset="0%" stop-color="#ffffff"/>
      <stop offset="100%" stop-color="#e2e8f0"/>
    </linearGradient>
    <linearGradient id="tab2" x1="0" y1="0" x2="0" y2="1">
      <stop offset="0%" stop-color="#f8fafc"/>
      <stop offset="100%" stop-color="#cbd5e1"/>
    </linearGradient>
    <linearGradient id="tab3" x1="0" y1="0" x2="0" y2="1">
      <stop offset="0%" stop-color="#f1f5f9"/>
      <stop offset="100%" stop-color="#94a3b8"/>
    </linearGradient>
  </defs>

  <!-- 背景圆角方块 -->
  <rect x="4" y="4" width="120" height="120" rx="24" ry="24" fill="url(#bg)"/>

  <!-- 标签页 3（最底层） -->
  <rect x="30" y="42" width="68" height="58" rx="6" ry="6" fill="url(#tab3)" opacity="0.5"/>
  <path d="M30 48 Q30 42 36 42 L48 42 L52 48 L92 48 Q98 48 98 54 L98 94 Q98 100 92 100 L36 100 Q30 100 30 94 Z" fill="url(#tab3)" opacity="0.5"/>
  <line x1="42" y1="58" x2="86" y2="58" stroke="#94a3b8" stroke-width="2" stroke-linecap="round" opacity="0.6"/>
  <line x1="42" y1="66" x2="78" y2="66" stroke="#94a3b8" stroke-width="2" stroke-linecap="round" opacity="0.6"/>
  <line x1="42" y1="74" x2="74" y2="74" stroke="#94a3b8" stroke-width="2" stroke-linecap="round" opacity="0.6"/>

  <!-- 标签页 2（中间层） -->
  <rect x="24" y="36" width="72" height="62" rx="6" ry="6" fill="url(#tab2)"/>
  <path d="M24 42 Q24 36 30 36 L44 36 L48 42 L90 42 Q96 42 96 48 L96 92 Q96 98 90 98 L30 98 Q24 98 24 92 Z" fill="url(#tab2)"/>
  <line x1="36" y1="52" x2="84" y2="52" stroke="#94a3b8" stroke-width="2" stroke-linecap="round"/>
  <line x1="36" y1="60" x2="76" y2="60" stroke="#94a3b8" stroke-width="2" stroke-linecap="round"/>
  <line x1="36" y1="68" x2="72" y2="68" stroke="#94a3b8" stroke-width="2" stroke-linecap="round"/>

  <!-- 标签页 1（最顶层） -->
  <rect x="18" y="28" width="76" height="66" rx="6" ry="6" fill="url(#tab1)"/>
  <path d="M18 34 Q18 28 24 28 L40 28 L45 34 L88 34 Q94 34 94 40 L94 88 Q94 94 88 94 L24 94 Q18 94 18 88 Z" fill="url(#tab1)"/>
  <!-- 关闭按钮 -->
  <circle cx="30" cy="42" r="4" fill="#ef4444"/>
  <circle cx="40" cy="42" r="4" fill="#f59e0b"/>
  <circle cx="50" cy="42" r="4" fill="#22c55e"/>
  <!-- 标签栏内容 -->
  <rect x="28" y="54" width="56" height="4" rx="2" fill="#6366f1" opacity="0.7"/>
  <rect x="28" y="64" width="48" height="4" rx="2" fill="#cbd5e1"/>
  <rect x="28" y="74" width="40" height="4" rx="2" fill="#cbd5e1"/>
  <rect x="28" y="84" width="32" height="4" rx="2" fill="#cbd5e1"/>

  <!-- 分组指示器（左侧竖线） -->
  <rect x="0" y="0" width="0" height="0" fill="none"/>
</svg>
